<svg xmlns="http://www.w3.org/2000/svg" width="405" height="150" fill="none"><g fill="#050505" clip-path="url(#a)"><path d="M185.417 56.446c1.008-1.008 1.872-1.8 2.88-2.88v-5.832h-11.016v-9h22.176v19.008l-9.144 9.144h-20.88l-9.216-9.216V24.982l9.216-9.216h20.808l9.216 9.216v9.504h-11.16v-5.4l-2.88-2.88h-11.16l-2.88 2.88v24.48l2.88 2.88zm44.462.72 9-2.88 2.952 9.288-10.584 3.312h-16.848l-7.776-7.704V35.494l7.776-7.704h19.152l7.776 7.704v10.008l-7.056 6.984h-16.488v3.312l1.368 1.368zM219.151 36.79l-1.368 1.368v5.328h11.376l1.008-1.008v-4.32l-1.368-1.368zm63.528 22.32-7.704 7.776h-19.656l-7.704-7.776V35.566l7.704-7.776h19.656l7.704 7.776zm-22.536-2.664h10.008l1.368-1.368v-15.48l-1.368-1.368h-10.008l-1.368 1.368v15.48zm-72.126 37.336V73.766h11.16v51.12h-11.16v-20.664h-16.92v20.664h-11.16v-51.12h11.16v20.016zm52.419 18.936 2.592 11.232-8.856 2.016-1.296-5.616-3.96 4.536h-15.48l-7.776-7.704v-9.36l7.776-7.704h15.84v-3.24l-1.368-1.368h-9.936l-9 2.88-2.952-9.288 10.584-3.312h16.056l7.776 7.704zm-11.16-.576v-3.024h-11.088l-1.368 1.368v4.032l1.368 1.368h7.848zm32.047-29.016v5.328l3.6-2.664h12.168l7.776 7.704v25.128l-7.776 7.704h-19.152l-7.776-7.704V84.638l-2.808-8.568 10.512-3.456zm0 15.768v15.624l1.368 1.368h9.648l1.368-1.368v-16.92l-1.368-1.368h-7.416zm64.05 13.824 2.592 11.232-8.856 2.016-1.296-5.616-3.96 4.536h-15.48l-7.776-7.704v-9.36l7.776-7.704h15.84v-3.24l-1.368-1.368h-9.936l-9 2.88-2.952-9.288 10.584-3.312h16.056l7.776 7.704zm-11.16-.576v-3.024h-11.088l-1.368 1.368v4.032l1.368 1.368h7.848zm35.071-15.912-3.24 3.744v24.912h-11.16V97.958l-2.592-11.232 8.856-2.016 1.296 5.616 3.96-4.536h13.536l8.352 8.208-7.416 7.56-5.472-5.328zm23.223 1.224-2.808-8.568 10.512-3.456 3.456 10.512v28.944h-11.16zm-.144-17.712v-5.4l3.024-3.024h5.112l3.384 3.024v5.4l-3.024 3.024h-5.472zM63.308 35.943c0 7.798-6.328 14.113-14.118 14.113-7.799 0-14.126-6.315-14.126-14.113 0-7.803 6.327-14.118 14.126-14.118 7.79 0 14.118 6.315 14.118 14.118m38.588 0c0 7.798-6.328 14.113-14.118 14.113-7.798 0-14.126-6.315-14.126-14.113 0-7.803 6.328-14.118 14.126-14.118 7.79 0 14.118 6.315 14.118 14.118m-38.588 38.37c0 7.799-6.328 14.113-14.118 14.113-7.799 0-14.126-6.314-14.126-14.113 0-7.803 6.327-14.118 14.126-14.118 7.79 0 14.118 6.315 14.118 14.118m37.724 0c0 7.799-6.328 14.113-14.118 14.113-7.799 0-14.126-6.314-14.126-14.113 0-7.803 6.328-14.118 14.126-14.118 7.79 0 14.118 6.315 14.118 14.118m39.166 0c0 7.799-6.328 14.113-14.118 14.113-7.799 0-14.126-6.314-14.126-14.113 0-7.803 6.327-14.118 14.126-14.118 7.79 0 14.118 6.315 14.118 14.118m0 38.877c0 7.799-6.328 14.114-14.118 14.114-7.799 0-14.126-6.315-14.126-14.114 0-7.803 6.327-14.117 14.126-14.117 7.79 0 14.118 6.314 14.118 14.117m-38.302 0c0 7.799-6.328 14.114-14.118 14.114-7.798 0-14.126-6.315-14.126-14.114 0-7.803 6.328-14.117 14.126-14.117 7.79 0 14.118 6.314 14.118 14.117"/></g><defs><clipPath id="a"><path fill="#fff" d="M0 0h405v150H0z"/></clipPath></defs></svg>