<svg xmlns="http://www.w3.org/2000/svg" xml:space="preserve" style="fill-rule:evenodd;clip-rule:evenodd;stroke-linejoin:round;stroke-miterlimit:2" viewBox="0 0 405 150"><path d="M0 0h540v540H0z" style="fill:none" transform="scale(.75 .27594)"/><text x="182.881" y="32.119" style="font-family:&quot;Bender-Black&quot;,&quot;Bender&quot;;font-weight:900;font-size:16.355px;fill:#8dc63f" transform="matrix(3.98523 0 0 4.2511 -566.26 -67.284)">Geo</text><text x="182.577" y="45.87" style="font-family:&quot;Bender-Black&quot;,&quot;Bender&quot;;font-weight:900;font-size:16.468px;fill:#8dc63f" transform="matrix(4.02295 0 0 4.2511 -573.227 -67.284)">Habari</text><path d="M-3.35-3.35a3.35 3.35 0 1 0 .003 6.701A3.35 3.35 0 0 0-3.35-3.35" style="fill:#8dc63f;fill-rule:nonzero" transform="matrix(0 -4.2511 -4.2511 0 47.89 21.337)"/><path d="M-3.35-3.35a3.35 3.35 0 1 0 .003 6.701A3.35 3.35 0 0 0-3.35-3.35" style="fill:#8dc63f;fill-rule:nonzero" transform="matrix(0 -4.2511 -4.2511 0 86.807 21.34)"/><path d="M-3.35-3.35a3.35 3.35 0 1 0 .003 6.701A3.35 3.35 0 0 0-3.35-3.35" style="fill:#8dc63f;fill-rule:nonzero" transform="matrix(0 -4.2511 -4.2511 0 47.89 60.032)"/><path d="M-3.35-3.35a3.35 3.35 0 1 0 .003 6.701A3.35 3.35 0 0 0-3.35-3.35" style="fill:#8dc63f;fill-rule:nonzero" transform="matrix(0 -4.2511 -4.2511 0 85.933 60.032)"/><path d="M-3.35-3.35a3.35 3.35 0 1 0 .003 6.701A3.35 3.35 0 0 0-3.35-3.35" style="fill:#8dc63f;fill-rule:nonzero" transform="matrix(0 -4.2511 -4.2511 0 125.43 60.032)"/><path d="M-3.35-3.35a3.35 3.35 0 1 0 .003 6.701A3.35 3.35 0 0 0-3.35-3.35" style="fill:#8dc63f;fill-rule:nonzero" transform="matrix(0 -4.2511 -4.2511 0 125.43 99.237)"/><path d="M-3.35-3.35a3.35 3.35 0 1 0 .003 6.701A3.35 3.35 0 0 0-3.35-3.35" style="fill:#8dc63f;fill-rule:nonzero" transform="matrix(0 -4.2511 -4.2511 0 86.804 99.237)"/></svg>