<svg width="1232" height="922" viewBox="0 0 1232 922" fill="none" xmlns="http://www.w3.org/2000/svg">
<path d="M300.422 91.4143C187.734 131.384 107.692 59.2225 107.692 59.2225L84.2221 423.462C84.6186 521.253 48.0968 635.421 92.6913 607.415C180.208 552.453 182.988 552.658 255.759 634.652C328.53 716.646 360.447 741.576 456.552 668.191C503.375 632.437 522.832 617.313 537.903 620.854C553.766 624.58 564.772 648.983 597.715 691.769C661.958 775.207 700.343 778.491 774.169 721.242C847.995 663.994 897.301 686.145 958.837 752.088C960.18 753.526 961.493 754.935 962.778 756.314C1020.41 818.142 1022.32 820.201 1132.55 781.103C1245.24 741.134 1325.28 813.295 1325.28 813.295L1338.43 448.626C1366.85 340.481 1384.88 237.096 1340.28 265.103C1252.77 320.064 1249.99 319.859 1177.22 237.865C1104.45 155.871 1072.53 130.941 976.424 204.327C929.601 240.081 910.144 255.205 895.072 251.664C879.209 247.937 868.204 223.535 835.261 180.748C771.018 97.3104 732.633 94.0267 658.807 151.275C584.981 208.524 535.675 186.373 474.138 120.43C472.796 118.992 471.483 117.583 470.198 116.204C412.57 54.3755 410.652 52.3171 300.422 91.4143Z" fill="#D0A895"/>
<path d="M297.159 140.904C184.471 180.873 104.428 108.712 104.428 108.712L80.9586 472.951C81.3551 570.742 44.8333 684.911 89.4278 656.905C176.944 601.943 179.724 602.148 252.496 684.142C325.267 766.136 357.183 791.066 453.288 717.681C500.112 681.926 519.568 666.803 534.64 670.343C550.503 674.07 561.508 698.473 594.451 741.259C658.695 824.697 697.08 827.981 770.906 770.732C844.731 713.484 894.038 735.635 955.574 801.577C956.916 803.016 958.229 804.425 959.515 805.804C1017.14 867.632 1019.06 869.69 1129.29 830.593C1241.98 790.624 1322.02 862.785 1322.02 862.785L1335.17 498.116C1363.58 389.971 1381.62 286.586 1337.02 314.592C1249.5 369.554 1246.72 369.349 1173.95 287.355C1101.18 205.361 1069.27 180.431 973.16 253.817C926.337 289.571 906.88 304.695 891.809 301.154C875.946 297.427 864.94 273.025 831.997 230.238C767.754 146.8 729.369 143.516 655.543 200.765C581.717 258.014 532.411 235.862 470.875 169.92C469.532 168.481 468.219 167.073 466.934 165.694C409.307 103.865 407.388 101.807 297.159 140.904Z" fill="#DADCD8"/>
</svg>
