<?xml version="1.0" encoding="UTF-8" standalone="no"?>
<!-- Created with Inkscape (http://www.inkscape.org/) -->

<svg
   width="213.09383mm"
   height="213.12723mm"
   viewBox="0 0 213.09383 213.12723"
   version="1.1"
   id="svg1"
   inkscape:export-filename="filter_follow.svg"
   inkscape:export-xdpi="96"
   inkscape:export-ydpi="96"
   xmlns:inkscape="http://www.inkscape.org/namespaces/inkscape"
   xmlns:sodipodi="http://sodipodi.sourceforge.net/DTD/sodipodi-0.dtd"
   xmlns="http://www.w3.org/2000/svg"
   xmlns:svg="http://www.w3.org/2000/svg">
  <sodipodi:namedview
     id="namedview1"
     pagecolor="#505050"
     bordercolor="#eeeeee"
     borderopacity="1"
     inkscape:showpageshadow="0"
     inkscape:pageopacity="0"
     inkscape:pagecheckerboard="0"
     inkscape:deskcolor="#505050"
     inkscape:document-units="mm" />
  <defs
     id="defs1">
    <inkscape:path-effect
       effect="offset"
       id="path-effect4"
       is_visible="true"
       lpeversion="1.2"
       linejoin_type="miter"
       unit="mm"
       offset="-2.7589437"
       miter_limit="7.6"
       attempt_force_join="false"
       update_on_knot_move="true" />
    <inkscape:path-effect
       effect="offset"
       id="path-effect2"
       is_visible="true"
       lpeversion="1.2"
       linejoin_type="miter"
       unit="mm"
       offset="-2.4774788"
       miter_limit="7.6"
       attempt_force_join="false"
       update_on_knot_move="true" />
    <filter
       inkscape:collect="always"
       style="color-interpolation-filters:sRGB"
       id="filter4"
       x="-0.12124765"
       y="-0.12122404"
       width="1.2424953"
       height="1.2424481">
      <feGaussianBlur
         inkscape:collect="always"
         stdDeviation="15.642858"
         id="feGaussianBlur4" />
    </filter>
  </defs>
  <g
     inkscape:label="Layer 1"
     inkscape:groupmode="layer"
     id="layer1"
     transform="translate(3.0938195,-13.675049)">
    <path
       sodipodi:type="star"
       style="mix-blend-mode:normal;fill:#ffffff;fill-opacity:1;stroke:none;stroke-width:8.04212;stroke-dasharray:none;stroke-opacity:1;filter:url(#filter4)"
       id="path3"
       inkscape:flatsided="false"
       sodipodi:sides="8"
       sodipodi:cx="31.181103"
       sodipodi:cy="67.039368"
       sodipodi:r1="116.18164"
       sodipodi:r2="112.1529"
       sodipodi:arg1="1.5473107"
       sodipodi:arg2="0.59500662"
       inkscape:rounded="1"
       inkscape:randomized="0"
       d="m 26.329063,-14.641348 0.01078,-0.0012 c 5.911642,15.58615542 9.687909,27.842372 12.160113,37.52135 1.067261,4.167619 1.892752,7.857534 2.540602,11.125766 l 0.303191,-0.402976 0.08008,0.609375 c 7.118721,-8.066109 18.418832,-19.080458 37.5,-33.59570263 l 0.0079,0.00627 13.578051,-10.32853591 -7.000675,15.5577057 0.0085,0.00675 C 78.143824,22.242937 71.751521,34.138164 66.410221,42.946031 64.663144,45.830857 63.028844,48.38437 61.51052,50.653356 l 0.501199,-0.07133 -0.373047,0.486328 c 10.737235,-0.669922 26.515396,-0.468454 50.269528,2.759766 l 0.001,0.01217 16.90486,2.296421 -15.9524,6.049766 0.001,0.01078 C 97.279601,68.107985 85.024756,71.883689 75.346471,74.355943 71.176974,75.423777 67.485552,76.2497 64.216126,76.89796 l 0.404968,0.305165 -0.609375,0.08008 c 8.065898,7.119009 19.078791,18.419082 33.59375,37.499997 l -0.0063,0.008 10.328531,13.57805 -15.557701,-7.00067 -0.0067,0.008 c -15.224204,-6.85114 -26.571995,-12.85567 -35.168705,-17.95706 -3.68609,-2.18428 -6.866995,-4.202775 -9.626917,-6.049761 l 0.07101,0.499012 -0.486328,-0.373047 c 0.669571,10.737736 0.467069,26.516816 -2.761719,50.273436 l -0.01217,0.001 -2.296421,16.90486 -6.049766,-15.9524 -0.01078,0.001 c -5.909047,-15.57898 -9.684468,-27.83149 -12.156646,-37.50876 -1.068961,-4.17357 -1.895531,-7.86827 -2.544076,-11.1403 l -0.303184,0.40297 -0.08008,-0.609379 C 13.818805,107.93506 2.51901,118.94883 -16.560547,133.46289 l -0.0079,-0.006 -13.580003,10.32854 7.002627,-15.55771 -0.0085,-0.007 c 7.386059,-16.41262 13.787077,-28.321029 19.1335645,-37.133974 1.7364812,-2.866197 3.36138631,-5.404853 4.87158011,-7.661962 l -0.50123823,0.07133 0.37304687,-0.486328 C -10.014069,83.679665 -25.790999,83.478146 -49.544922,80.25 l -0.0014,-0.01217 -16.904861,-2.296421 15.952402,-6.049766 -0.0012,-0.01078 c 15.564212,-5.903319 27.808004,-9.676313 37.480681,-12.148148 4.1843025,-1.072067 7.8876013,-1.900651 11.1664467,-2.550613 l -0.4049402,-0.305145 0.609375,-0.08008 C -9.7140233,49.677975 -20.726118,38.378265 -35.240234,19.298828 l 0.0063,-0.0079 -10.328536,-13.5800035 15.557706,7.0026275 0.0067,-0.0085 c 16.409779,7.38485 28.3163489,13.784774 37.1283288,19.130554 2.8669036,1.73687 5.4061252,3.362125 7.6637042,4.872637 l -0.07133,-0.501238 0.486328,0.373047 C 14.539714,25.842699 14.742745,10.06471 17.970703,-13.6875 l 0.01217,-0.0014 2.296421,-16.904861 z m 15.740048,77.179824 c 0.07622,-0.128677 0.154805,-0.25801 0.235576,-0.388085 l -0.101562,0.01367 0.113281,-0.146484 c -1.664158,-0.0791 -3.098673,-0.522512 -4.359375,-1.613281 -1.262953,-1.092717 -1.904486,-2.707398 -2.367187,-4.685547 l -0.0625,0.08203 -0.02539,-0.1875 c -1.23326,1.121238 -2.561311,1.821883 -4.224609,1.941406 -1.234469,0.08871 -2.429234,-0.265945 -3.667583,-0.891833 -0.310844,-0.156678 -0.624549,-0.33087 -0.942484,-0.520104 -0.124767,-0.07407 -0.250161,-0.150352 -0.376261,-0.228688 l 0.01367,0.101563 -0.146484,-0.113281 c -0.07861,1.664986 -0.522155,3.099844 -1.613281,4.361328 -0.784478,0.906958 -1.83771,1.493218 -3.101553,1.923015 -0.292474,0.09975 -0.596547,0.190959 -0.911653,0.275585 -0.219067,0.05905 -0.443262,0.115012 -0.672341,0.168587 l 0.08203,0.0625 -0.185547,0.02539 c 1.120323,1.232458 1.82164,2.560141 1.941407,4.222656 0.08792,1.220414 -0.257994,2.402294 -0.870741,3.625648 -0.164097,0.328575 -0.347915,0.660277 -0.548519,0.996725 -0.07177,0.120709 -0.145612,0.242003 -0.221365,0.363955 l 0.101562,-0.01367 -0.113281,0.146485 c 1.664232,0.07923 3.098824,0.524272 4.359375,1.615234 0.930713,0.8055 1.524078,1.894253 1.957003,3.203172 0.08544,0.257606 0.164531,0.524024 0.238577,0.798891 0.06017,0.22261 0.11713,0.450524 0.171607,0.683484 l 0.0625,-0.08203 0.02539,0.185547 c 1.232515,-1.120423 2.560239,-1.821299 4.222656,-1.941407 1.20069,-0.08675 2.364841,0.245808 3.567708,0.839617 0.340291,0.167501 0.683851,0.356413 1.032489,0.563479 0.128677,0.07622 0.25801,0.154805 0.388084,0.235576 l -0.01367,-0.101562 0.146484,0.113281 c 0.07929,-1.664163 0.524064,-3.098978 1.615234,-4.359375 0.846455,-0.977728 2.005434,-1.582254 3.40387,-2.019972 0.162779,-0.05104 0.328911,-0.09977 0.498306,-0.146495 0.254188,-0.07026 0.515442,-0.136143 0.783371,-0.198767 l -0.08203,-0.0625 0.185547,-0.02539 c -1.120423,-1.232515 -1.821299,-2.560239 -1.941406,-4.222656 -0.08675,-1.20069 0.245807,-2.36484 0.839616,-3.567707 0.167501,-0.340291 0.356412,-0.683851 0.563479,-1.032489 z m 4.411358,-150.374413 c 33.043286,0.313061 73.865281,18.008775 79.654301,38.33789 l 0.6582,2.3125 2.31055,0.671875 c 31.01815,9.002416 65.47166,73.419692 51.625,98.292969 l -1.16993,2.101562 1.16016,2.105469 c 15.56685,28.299221 -5.62108,98.210762 -33,106.007812 l -2.3125,0.6582 -0.67188,2.31055 c -9.00342,31.01798 -73.419905,65.46959 -98.292964,51.62305 l -2.101562,-1.16992 -2.105469,1.16015 c -28.299355,15.56693 -98.211223,-5.62094 -106.007812,-33 l -0.658204,-2.3125 -2.310546,-0.67187 c -31.018086,-9.00346 -65.469893,-73.42008 -51.623043,-98.292972 l 1.16992,-2.101562 -1.16016,-2.105469 c -15.5662,-28.299949 5.62115,-98.209328 33.000001,-106.005859 l 2.3125,-0.658204 0.671875,-2.310546 c 9.00238,-31.018028 73.4173725,-65.471097 98.291016,-51.625 l 2.101562,1.169921 2.105469,-1.160156 c 6.653142,-3.659963 15.752623,-5.438326 26.353516,-5.33789 z"
       transform="matrix(0.63492352,0,0,0.63492352,83.655043,77.693)"
       inkscape:path-effect="#path-effect4" />
    <path
       sodipodi:type="star"
       style="fill:#78c75d;fill-opacity:1;stroke:#e8b240;stroke-width:8.04212;stroke-dasharray:none;stroke-opacity:1"
       id="path2"
       inkscape:flatsided="false"
       sodipodi:sides="8"
       sodipodi:cx="31.181103"
       sodipodi:cy="67.039368"
       sodipodi:r1="116.18164"
       sodipodi:r2="112.1529"
       sodipodi:arg1="1.5473107"
       sodipodi:arg2="0.59500662"
       inkscape:rounded="1"
       inkscape:randomized="0"
       d="m 26.329063,-14.641348 0.01078,-0.0012 c 5.911642,15.58615543 9.687909,27.842372 12.160113,37.52135 1.067261,4.167619 1.892752,7.857534 2.540602,11.125766 l 0.303191,-0.402976 0.08008,0.609375 c 7.118721,-8.066109 18.418832,-19.080458 37.5,-33.59570263 l 0.0079,0.00627 13.578051,-10.32853591 -7.000675,15.5577057 0.0085,0.00675 C 78.143824,22.242937 71.751521,34.138164 66.410221,42.946031 64.663144,45.830857 63.028844,48.38437 61.51052,50.653356 l 0.501199,-0.07133 -0.373047,0.486328 c 10.737235,-0.669922 26.515396,-0.468454 50.269528,2.759766 l 0.001,0.01217 16.90486,2.296421 -15.9524,6.049766 0.001,0.01078 C 97.279601,68.107985 85.024756,71.883689 75.346471,74.355943 71.176974,75.423777 67.485552,76.2497 64.216126,76.89796 l 0.404968,0.305165 -0.609375,0.08008 c 8.065898,7.119009 19.078791,18.419082 33.59375,37.499997 l -0.0063,0.008 10.328531,13.57805 -15.557701,-7.00067 -0.0067,0.008 c -15.224204,-6.85114 -26.571995,-12.85567 -35.168705,-17.95706 -3.68609,-2.18428 -6.866995,-4.202775 -9.626917,-6.049761 l 0.07101,0.499012 -0.486328,-0.373047 c 0.669571,10.737736 0.467069,26.516816 -2.761719,50.273436 l -0.01217,0.001 -2.296421,16.90486 -6.049766,-15.9524 -0.01078,0.001 c -5.909047,-15.57898 -9.684468,-27.83149 -12.156646,-37.50876 -1.068961,-4.17357 -1.895531,-7.86827 -2.544076,-11.1403 l -0.303184,0.40297 -0.08008,-0.609379 C 13.818805,107.93506 2.51901,118.94883 -16.560547,133.46289 l -0.0079,-0.006 -13.580003,10.32854 7.002627,-15.55771 -0.0085,-0.007 c 7.386059,-16.41262 13.787077,-28.321029 19.1335645,-37.133974 1.7364812,-2.866197 3.36138631,-5.404853 4.87158011,-7.661962 l -0.50123823,0.07133 0.37304687,-0.486328 C -10.014069,83.679665 -25.790999,83.478146 -49.544922,80.25 l -0.0014,-0.01217 -16.904861,-2.296421 15.952402,-6.049766 -0.0012,-0.01078 c 15.564212,-5.903319 27.808004,-9.676313 37.480681,-12.148148 4.1843025,-1.072067 7.8876013,-1.900651 11.1664467,-2.550613 l -0.4049402,-0.305145 0.609375,-0.08008 C -9.7140233,49.677975 -20.726118,38.378265 -35.240234,19.298828 l 0.0063,-0.0079 -10.328536,-13.5800035 15.557706,7.0026275 0.0067,-0.0085 c 16.409779,7.38485 28.316349,13.784774 37.1283288,19.130554 2.8669036,1.73687 5.4061252,3.362125 7.6637042,4.872637 l -0.07133,-0.501238 0.486328,0.373047 C 14.539714,25.842699 14.742745,10.06471 17.970703,-13.6875 l 0.01217,-0.0014 2.296421,-16.904861 z m 15.740048,77.179824 c 0.07622,-0.128677 0.154805,-0.25801 0.235576,-0.388085 l -0.101562,0.01367 0.113281,-0.146484 c -1.664158,-0.0791 -3.098673,-0.522512 -4.359375,-1.613281 -1.262953,-1.092717 -1.904486,-2.707398 -2.367187,-4.685547 l -0.0625,0.08203 -0.02539,-0.1875 c -1.23326,1.121238 -2.561311,1.821883 -4.224609,1.941406 -1.234469,0.08871 -2.429234,-0.265945 -3.667583,-0.891833 -0.310844,-0.156678 -0.62455,-0.33087 -0.942484,-0.520104 -0.124767,-0.07407 -0.250161,-0.150352 -0.376261,-0.228688 l 0.01367,0.101563 -0.146484,-0.113281 c -0.07861,1.664986 -0.522155,3.099844 -1.613281,4.361328 -0.784478,0.906958 -1.83771,1.493218 -3.101553,1.923015 -0.292474,0.09975 -0.596547,0.190959 -0.911653,0.275585 -0.219067,0.05905 -0.443262,0.115012 -0.672341,0.168587 l 0.08203,0.0625 -0.185547,0.02539 c 1.120323,1.232458 1.82164,2.560141 1.941407,4.222656 0.08792,1.220414 -0.257994,2.402294 -0.870741,3.625648 -0.164097,0.328575 -0.347915,0.660277 -0.548519,0.996725 -0.07177,0.120709 -0.145612,0.242003 -0.221365,0.363955 l 0.101562,-0.01367 -0.113281,0.146485 c 1.664232,0.07923 3.098824,0.524272 4.359375,1.615234 0.930713,0.8055 1.524078,1.894253 1.957003,3.203172 0.08544,0.257606 0.164531,0.524024 0.238577,0.798891 0.06017,0.22261 0.11713,0.450524 0.171607,0.683484 l 0.0625,-0.08203 0.02539,0.185547 c 1.232515,-1.120423 2.560239,-1.821299 4.222656,-1.941407 1.20069,-0.08675 2.364841,0.245808 3.567708,0.839617 0.340291,0.167501 0.683851,0.356413 1.032489,0.563479 0.128677,0.07622 0.25801,0.154805 0.388084,0.235576 l -0.01367,-0.101562 0.146484,0.113281 c 0.07929,-1.664163 0.524064,-3.098978 1.615234,-4.359375 0.846455,-0.977728 2.005434,-1.582254 3.40387,-2.019972 0.162779,-0.05104 0.328911,-0.09977 0.498305,-0.146495 0.254189,-0.07026 0.515443,-0.136143 0.783372,-0.198767 l -0.08203,-0.0625 0.185547,-0.02539 c -1.120423,-1.232515 -1.821299,-2.560239 -1.941406,-4.222656 -0.08675,-1.20069 0.245807,-2.36484 0.839616,-3.567707 0.167501,-0.340291 0.356412,-0.683851 0.563479,-1.032489 z m 4.411358,-150.374413 c 33.043286,0.313061 73.865281,18.008775 79.654301,38.33789 l 0.6582,2.3125 2.31055,0.671875 c 31.01815,9.002416 65.47166,73.419692 51.625,98.292969 l -1.16993,2.101562 1.16016,2.105469 c 15.56685,28.299221 -5.62108,98.210762 -33,106.007812 l -2.3125,0.6582 -0.67188,2.31055 c -9.00342,31.01798 -73.419905,65.46959 -98.292964,51.62305 l -2.101562,-1.16992 -2.105469,1.16015 c -28.299355,15.56693 -98.211223,-5.62094 -106.007812,-33 l -0.658204,-2.3125 -2.310546,-0.67187 c -31.018086,-9.00346 -65.469893,-73.42008 -51.623043,-98.292972 l 1.16992,-2.101562 -1.16016,-2.105469 c -15.5662,-28.299949 5.62115,-98.209328 33.000001,-106.005859 l 2.3125,-0.658204 0.671875,-2.310546 c 9.00238,-31.018028 73.4173725,-65.471097 98.291016,-51.625 l 2.101562,1.169921 2.105469,-1.160156 c 6.653142,-3.659963 15.752623,-5.438326 26.353516,-5.33789 z"
       transform="matrix(0.57014921,0,0,0.57014921,85.674822,82.042216)"
       inkscape:path-effect="#path-effect2" />
  </g>
</svg>
