<svg width="405" height="150" viewBox="0 0 405 150" fill="none" xmlns="http://www.w3.org/2000/svg">
<g clip-path="url(#clip0_137_123)">
<path d="M185.417 56.4461C186.425 55.4381 187.289 54.6461 188.297 53.5661V47.7341H177.281V38.7341H199.457V57.7421L190.313 66.8861H169.433L160.217 57.6701V24.9821L169.433 15.7661H190.241L199.457 24.9821V34.4861H188.297V29.0861L185.417 26.2061H174.257L171.377 29.0861V53.5661L174.257 56.4461H185.417ZM229.879 57.1661L238.879 54.2861L241.831 63.5741L231.247 66.8861H214.399L206.623 59.1821V35.4941L214.399 27.7901H233.551L241.327 35.4941V45.5021L234.271 52.4861H217.783V55.7981L219.151 57.1661H229.879ZM219.151 36.7901L217.783 38.1581V43.4861H229.159L230.167 42.4781V38.1581L228.799 36.7901H219.151ZM282.679 59.1101L274.975 66.8861H255.319L247.615 59.1101V35.5661L255.319 27.7901H274.975L282.679 35.5661V59.1101ZM260.143 56.4461H270.151L271.519 55.0781V39.5981L270.151 38.2301H260.143L258.775 39.5981V55.0781L260.143 56.4461Z" fill="#050505"/>
<path d="M188.017 93.7821V73.7661H199.177V124.886H188.017V104.222H171.097V124.886H159.937V73.7661H171.097V93.7821H188.017ZM240.436 112.718L243.028 123.95L234.172 125.966L232.876 120.35L228.916 124.886H213.436L205.66 117.182V107.822L213.436 100.118H229.276V96.8781L227.908 95.5101H217.972L208.972 98.3901L206.02 89.1021L216.604 85.7901H232.66L240.436 93.4941V112.718ZM229.276 112.142V109.118H218.188L216.82 110.486V114.518L218.188 115.886H226.036L229.276 112.142ZM261.323 83.1261V88.4541L264.923 85.7901H277.091L284.867 93.4941V118.622L277.091 126.326H257.939L250.163 118.622V84.6381L247.355 76.0701L257.867 72.6141L261.323 83.1261ZM261.323 98.8941V114.518L262.691 115.886H272.339L273.707 114.518V97.5981L272.339 96.2301H264.923L261.323 98.8941ZM325.373 112.718L327.965 123.95L319.109 125.966L317.813 120.35L313.853 124.886H298.373L290.597 117.182V107.822L298.373 100.118H314.213V96.8781L312.845 95.5101H302.909L293.909 98.3901L290.957 89.1021L301.541 85.7901H317.597L325.373 93.4941V112.718ZM314.213 112.142V109.118H303.125L301.757 110.486V114.518L303.125 115.886H310.973L314.213 112.142ZM349.284 96.2301L346.044 99.9741V124.886H334.884V97.9581L332.292 86.7261L341.148 84.7101L342.444 90.3261L346.404 85.7901H359.94L368.292 93.9981L360.876 101.558L355.404 96.2301H349.284ZM372.507 97.4541L369.699 88.8861L380.211 85.4301L383.667 95.9421V124.886H372.507V97.4541ZM372.363 79.7421V74.3421L375.387 71.3181H380.499L383.883 74.3421V79.7421L380.859 82.7661H375.387L372.363 79.7421Z" fill="#050505"/>
<path d="M63.3075 35.9425C63.3075 43.7411 56.9801 50.0559 49.1899 50.0559C41.3912 50.0559 35.0638 43.7411 35.0638 35.9425C35.0638 28.1397 41.3912 21.8249 49.1899 21.8249C56.9801 21.8249 63.3075 28.1397 63.3075 35.9425Z" fill="#050505"/>
<path d="M101.896 35.9425C101.896 43.7411 95.5684 50.0559 87.7782 50.0559C79.9796 50.0559 73.6522 43.7411 73.6522 35.9425C73.6522 28.1397 79.9796 21.8249 87.7782 21.8249C95.5684 21.8249 101.896 28.1397 101.896 35.9425Z" fill="#050505"/>
<path d="M63.3075 74.3129C63.3075 82.1116 56.9801 88.4263 49.1899 88.4263C41.3912 88.4263 35.0638 82.1116 35.0638 74.3129C35.0638 66.5101 41.3912 60.1953 49.1899 60.1953C56.9801 60.1953 63.3075 66.5101 63.3075 74.3129Z" fill="#050505"/>
<path d="M101.032 74.3129C101.032 82.1116 94.7043 88.4263 86.9141 88.4263C79.1155 88.4263 72.788 82.1116 72.788 74.3129C72.788 66.5101 79.1155 60.1953 86.9141 60.1953C94.7043 60.1953 101.032 66.5101 101.032 74.3129Z" fill="#050505"/>
<path d="M140.198 74.3129C140.198 82.1116 133.87 88.4263 126.08 88.4263C118.281 88.4263 111.954 82.1116 111.954 74.3129C111.954 66.5101 118.281 60.1953 126.08 60.1953C133.87 60.1953 140.198 66.5101 140.198 74.3129Z" fill="#050505"/>
<path d="M140.198 113.19C140.198 120.989 133.87 127.304 126.08 127.304C118.281 127.304 111.954 120.989 111.954 113.19C111.954 105.387 118.281 99.0725 126.08 99.0725C133.87 99.0725 140.198 105.387 140.198 113.19Z" fill="#050505"/>
<path d="M101.896 113.19C101.896 120.989 95.5684 127.304 87.7782 127.304C79.9796 127.304 73.6522 120.989 73.6522 113.19C73.6522 105.387 79.9796 99.0725 87.7782 99.0725C95.5684 99.0725 101.896 105.387 101.896 113.19Z" fill="#050505"/>
</g>
<defs>
<clipPath id="clip0_137_123">
<rect width="405" height="150" fill="white"/>
</clipPath>
</defs>
</svg>
