<svg role="img" viewBox="0 0 48 48" xmlns="http://www.w3.org/2000/svg" id="Podcastaddict--Streamline-Simple-Icons" height="48" width="48">
  <desc>
    Podcastaddict Streamline Icon: https://streamlinehq.com
  </desc>
  <title>Podcast Addict</title>
  <path d="M10.72 0.074C4.82 0.074 0 4.894 0 10.794v26.414c0 5.9 4.82 10.72 10.72 10.72h26.56c5.89 0 10.72 -4.82 10.72 -10.72V10.792c0 -5.9 -4.83 -10.72 -10.72 -10.72zm13.17 8.57a15.44 15.44 0 0 1 15.434 15.088l0.01 15.792h-6.78v-2.652a15.36 15.36 0 0 1 -8.654 2.652 15.554 15.554 0 0 1 -4.768 -0.756v-9.26a7.294 7.294 0 0 0 4.832 1.82 7.332 7.332 0 0 0 7.198 -5.94h-2.568a4.832 4.832 0 0 1 -9.46 -1.32v-0.062c0 -2.19 1.456 -4.046 3.456 -4.632V16.806a7.34 7.34 0 0 0 -5.95 7.2v13.704a15.44 15.44 0 0 1 7.25 -29.066zm0.062 3.74V14.86h0.012a9.15 9.15 0 0 1 9.146 9.148v0.02h2.474v-0.02a11.62 11.62 0 0 0 -11.62 -11.62zm0 4.298v2.492h0.012a4.826 4.826 0 0 1 4.83 4.832v0.02h2.494v-0.02a7.324 7.324 0 0 0 -7.324 -7.324zm0 4.504c-1.56 0 -2.818 1.258 -2.818 2.82 0 1.56 1.258 2.818 2.82 2.818 1.56 0 2.818 -1.258 2.818 -2.82 0 -1.56 -1.258 -2.818 -2.82 -2.818z" fill="#fd7e14" stroke-width="2"></path>
</svg>