<svg width="401" height="142" viewBox="0 0 401 142" fill="none" xmlns="http://www.w3.org/2000/svg">
<path d="M12.032 10.0047H0V3.73268H31.296V10.0047H19.136V50.7727H12.032V10.0047Z" fill="black"/>
<path d="M34.2265 3.73268H40.9465V21.3967L40.6905 26.8367C41.5012 25.0447 42.8025 23.5727 44.5945 22.4207C46.3865 21.226 48.4772 20.6287 50.8665 20.6287C53.8958 20.6287 56.2212 21.2687 57.8425 22.5487C59.4638 23.786 60.5518 25.5353 61.1065 27.7967C61.6612 30.058 61.9385 33.002 61.9385 36.6287V50.7727H55.0905V36.5647C55.0905 34.09 54.9412 32.1487 54.6425 30.7407C54.3865 29.3327 53.8318 28.266 52.9785 27.5407C52.1678 26.8153 50.9732 26.4527 49.3945 26.4527C48.1145 26.4527 46.8132 26.8367 45.4905 27.6047C44.2105 28.3727 43.1438 29.5033 42.2905 30.9967C41.4372 32.4473 41.0105 34.1753 41.0105 36.1807V50.7727H34.2265V3.73268Z" fill="black"/>
<path d="M83.327 51.4127C79.8283 51.4127 76.9057 50.73 74.559 49.3647C72.2123 47.9567 70.4843 46.1007 69.375 43.7967C68.2657 41.45 67.711 38.89 67.711 36.1167C67.711 33.002 68.351 30.2713 69.631 27.9247C70.9537 25.578 72.767 23.786 75.071 22.5487C77.375 21.2687 79.9777 20.6287 82.879 20.6287C87.4017 20.6287 90.751 21.8873 92.927 24.4047C95.1457 26.8793 96.255 30.378 96.255 34.9007C96.255 36.0527 96.191 37.2473 96.063 38.4847H74.943C75.4123 41.0873 76.3297 42.9647 77.695 44.1167C79.103 45.2687 81.0443 45.8447 83.519 45.8447C85.567 45.8447 87.2523 45.674 88.575 45.3327C89.8977 44.9913 91.1137 44.522 92.223 43.9247L94.335 48.8527C93.2683 49.5353 91.8177 50.1327 89.983 50.6447C88.1483 51.1567 85.9297 51.4127 83.327 51.4127ZM89.535 33.6847C89.5777 31.0393 89.0017 29.1833 87.807 28.1167C86.6123 27.0073 84.9057 26.4527 82.687 26.4527C78.207 26.4527 75.6257 28.8633 74.943 33.6847H89.535Z" fill="black"/>
<path d="M55.6662 113.721C54.7664 115.467 53.5475 117.078 52.0095 118.553C50.4714 120.028 48.7675 121.337 46.8976 122.48C45.0278 123.623 43.0687 124.585 41.0203 125.365C38.977 126.171 36.9976 126.765 35.0822 127.147C31.3791 127.886 27.8373 127.902 24.4567 127.195C21.0761 126.488 18.0176 125.2 15.2811 123.329C12.5651 121.428 10.2528 119.021 8.34426 116.109C6.43572 113.197 5.11725 109.915 4.38885 106.263C3.83364 103.479 3.6104 100.696 3.71912 97.9121C3.82275 95.1032 4.22765 92.4069 4.93381 89.823C5.66041 87.2085 6.68315 84.7474 8.00203 82.4396C9.31581 80.1063 10.9155 78.0081 12.801 76.145C14.6866 74.2819 16.8401 72.6972 19.2616 71.3911C21.6831 70.0849 24.3623 69.1389 27.2992 68.5532C28.3974 68.3341 29.5824 68.1509 30.8541 68.0035C32.1208 67.8305 33.39 67.7367 34.6617 67.722C35.9538 67.6768 37.2255 67.7285 38.4767 67.8773C39.7279 68.026 40.8947 68.2846 41.9773 68.6529L43.8233 83.5005C42.2862 83.2494 40.7336 83.1873 39.1656 83.3141C37.6181 83.4103 36.1165 83.6036 34.6608 83.894C32.6177 84.3015 30.766 85.0027 29.1056 85.9977C27.4657 86.9621 26.0989 88.1641 25.0052 89.6038C23.937 91.0384 23.188 92.6748 22.758 94.5132C22.328 96.3515 22.3244 98.3306 22.7472 100.45C23.012 101.778 23.448 103.032 24.0552 104.212C24.6572 105.367 25.4126 106.358 26.3212 107.186C27.2503 107.983 28.3097 108.569 29.4995 108.942C30.7148 109.31 32.0376 109.352 33.4677 109.067C34.4382 108.873 35.4087 108.547 36.3793 108.088C37.3755 107.623 38.1827 107.011 38.8011 106.25L38.3584 103.232L29.1339 104.912L27.3015 93.3282C31.0812 92.4415 34.8661 91.5804 38.6561 90.7448C42.441 89.8837 46.2463 88.992 50.0721 88.0696L55.6662 113.721Z" fill="black"/>
<path d="M83.8655 58.7847C84.1911 61.2158 84.5244 63.619 84.8653 65.994C85.2062 68.369 85.5139 70.7772 85.7884 73.2186L69.7139 77.3009L70.2935 82.2042L81.7093 79.9273L83.2351 91.9708L71.8191 94.6461L72.5516 100.315L88.7941 97.0759C89.2012 99.9157 89.593 102.745 89.9694 105.565C90.3663 108.353 90.7785 111.152 91.206 113.962L58.3373 121.314L48.5456 65.8292L83.8655 58.7847Z" fill="black"/>
<path d="M135.23 77.8563C135.694 80.1803 135.874 82.4811 135.77 84.7589C135.662 87.0111 135.286 89.184 134.641 91.2776C134.022 93.3662 133.142 95.3473 132.002 97.221C130.883 99.0641 129.529 100.728 127.94 102.214C126.376 103.694 124.598 104.965 122.606 106.026C120.608 107.062 118.422 107.816 116.047 108.29C113.748 108.748 111.493 108.893 109.282 108.723C107.096 108.548 104.992 108.118 102.97 107.433C100.943 106.722 99.0412 105.773 97.2645 104.588C95.5083 103.371 93.9258 101.961 92.5171 100.356C91.1288 98.7213 89.9321 96.9153 88.927 94.9383C87.9475 92.9562 87.2311 90.8287 86.7777 88.5557C86.3346 86.3338 86.1698 84.1096 86.2833 81.8829C86.3918 79.6307 86.7555 77.4603 87.3746 75.3718C88.0192 73.2782 88.8987 71.2971 90.0131 69.4284C91.1274 67.5598 92.4511 65.8751 93.984 64.3744C95.5425 62.8686 97.2924 61.5902 99.2337 60.5391C101.175 59.4881 103.295 58.7333 105.593 58.2749C109.296 57.5363 112.782 57.4386 116.05 57.9817C119.344 58.5197 122.278 59.6474 124.851 61.3647C127.444 63.0515 129.632 65.2973 131.413 68.1021C133.214 70.8762 134.487 74.1276 135.23 77.8563ZM118.42 82.2446C118.201 81.1465 117.824 80.1197 117.288 79.1644C116.773 78.1785 116.13 77.3507 115.359 76.6813C114.583 75.9863 113.687 75.4879 112.671 75.186C111.675 74.8535 110.59 74.8044 109.415 75.0387C108.215 75.2781 107.185 75.7092 106.327 76.3318C105.469 76.9544 104.771 77.7176 104.234 78.6212C103.718 79.4943 103.383 80.4773 103.229 81.5701C103.07 82.6374 103.103 83.7329 103.327 84.8566C103.541 85.9293 103.908 86.9713 104.428 87.9828C104.949 88.9943 105.602 89.8731 106.388 90.6192C107.174 91.3652 108.068 91.9173 109.069 92.2753C110.095 92.6283 111.208 92.685 112.409 92.4456C113.609 92.2062 114.636 91.7625 115.489 91.1143C116.363 90.4355 117.053 89.634 117.559 88.7099C118.06 87.7602 118.385 86.7262 118.533 85.6078C118.682 84.4894 118.644 83.3683 118.42 82.2446Z" fill="black"/>
<path d="M187.208 95.6105L168.238 100.35L164.555 82.6824L155.744 84.4398L158.554 101.326L141.392 104.749L132.105 50.5972L150.508 47.8031L154.845 75.5374L163.349 73.8413L157.527 44.2522L175.087 41.2278L187.208 95.6105Z" fill="black"/>
<path d="M236.928 82.2685L218.416 88.5099L214.391 80.3107L205.657 82.0527L205.468 91.0924L185.549 93.0736L190.618 39.0065L211.704 33.6857L236.928 82.2685ZM210.674 68.8635L205.104 56.113L204.928 70.0096L210.674 68.8635Z" fill="black"/>
<path d="M278.691 63.1842C279.114 65.304 279.082 67.2089 278.596 68.8991C278.135 70.5843 277.361 72.093 276.272 73.4254C275.184 74.7578 273.853 75.9395 272.279 76.9703C270.726 77.9705 269.068 78.8455 267.306 79.5953C265.543 80.3451 263.743 80.9698 261.904 81.4693C260.091 81.9638 258.38 82.3714 256.771 82.6923C255.187 83.0081 253.527 83.2728 251.791 83.4864C250.085 83.7205 248.361 83.8651 246.619 83.9203C244.878 83.9756 243.144 83.9364 241.418 83.8027C239.687 83.6434 238.022 83.3515 236.423 82.9267L226.506 33.6013C227.819 32.7287 229.234 31.9021 230.751 31.1215C232.263 30.3153 233.819 29.5935 235.418 28.9559C237.037 28.2877 238.662 27.7115 240.291 27.2272C241.915 26.7173 243.506 26.307 245.064 25.9963C246.878 25.6347 248.727 25.3854 250.611 25.2485C252.521 25.1065 254.385 25.133 256.203 25.3281C258.022 25.5231 259.758 25.907 261.412 26.4799C263.062 27.0273 264.56 27.8171 265.908 28.8495C267.281 29.8768 268.44 31.1593 269.384 32.697C270.353 34.2297 271.055 36.0814 271.488 38.2522C271.773 39.6824 271.836 41.0639 271.677 42.3968C271.518 43.7297 271.155 44.9706 270.587 46.1194C270.02 47.2682 269.258 48.3097 268.303 49.2438C267.342 50.1524 266.205 50.9102 264.892 51.5172C266.639 51.6203 268.273 51.9582 269.795 52.531C271.342 53.0988 272.708 53.8885 273.892 54.9004C275.102 55.9072 276.112 57.113 276.924 58.5179C277.76 59.9177 278.35 61.4732 278.691 63.1842ZM254.875 45.2301C254.728 44.4895 254.45 43.8943 254.041 43.4447C253.628 42.9695 253.158 42.6117 252.632 42.3714C252.132 42.126 251.598 41.9802 251.031 41.9339C250.49 41.8825 250.015 41.8976 249.606 41.9791C249.096 42.081 248.613 42.2569 248.158 42.5069C247.704 42.757 247.267 43.03 246.848 43.326L248.314 51.8762C248.902 51.759 249.619 51.5628 250.467 51.2874C251.315 51.0121 252.102 50.6295 252.827 50.1396C253.573 49.619 254.161 48.9707 254.59 48.1947C255.015 47.393 255.11 46.4049 254.875 45.2301ZM251.926 58.8034C251.186 58.9511 250.486 59.1704 249.827 59.4612L251.416 68.2259C251.814 68.2261 252.2 68.2289 252.573 68.2342C252.966 68.2089 253.341 68.1606 253.699 68.0892C254.235 67.9823 254.812 67.814 255.43 67.5845C256.043 67.3295 256.598 66.98 257.093 66.5359C257.584 66.0663 257.949 65.5022 258.19 64.8435C258.456 64.1797 258.492 63.3625 258.298 62.3921C258.105 61.4216 257.755 60.6681 257.25 60.1316C256.77 59.59 256.229 59.2066 255.626 58.9816C255.019 58.731 254.386 58.6183 253.727 58.6435C253.063 58.6432 252.463 58.6965 251.926 58.8034Z" fill="black"/>
<path d="M329.56 63.7931L311.048 70.0345L307.023 61.8353L298.288 63.5774L298.1 72.617L278.181 74.5982L283.25 20.5311L304.335 15.2103L329.56 63.7931ZM303.306 50.3881L297.735 37.6376L297.559 51.5342L303.306 50.3881Z" fill="black"/>
<path d="M366.984 21.3565C367.381 23.3485 367.564 25.1974 367.532 26.9032C367.521 28.5784 367.28 30.1666 366.81 31.6678C366.339 33.1691 365.631 34.6115 364.685 35.9951C363.74 37.3786 362.541 38.7595 361.09 40.1376L373.447 54.5618L356.881 61.3711L347.727 46.2285L343.007 47.3292L345.496 63.4029L329.023 66.6883C327.99 60.84 326.948 55.0198 325.899 49.2277C324.876 43.4305 323.86 37.6052 322.852 31.7518C322.317 28.8047 321.788 25.8831 321.263 22.987C320.739 20.091 320.26 17.1592 319.828 14.1917C321.483 13.1711 323.136 12.2706 324.786 11.4901C326.436 10.7095 328.106 10.0312 329.797 9.45494C331.508 8.84809 333.25 8.32808 335.022 7.89491C336.815 7.4311 338.656 7.01073 340.546 6.6338C343.458 6.05312 346.349 5.90144 349.219 6.17874C352.109 6.42542 354.762 7.14438 357.177 8.33564C359.592 9.52689 361.665 11.198 363.395 13.3491C365.151 15.495 366.347 18.1642 366.984 21.3565ZM350.066 26.0053C349.852 24.9327 349.503 23.98 349.018 23.1473C348.559 22.3095 347.972 21.6299 347.257 21.1086C346.563 20.5566 345.746 20.1885 344.806 20.0041C343.887 19.7891 342.853 19.7963 341.704 20.0255C341.193 20.1273 340.703 20.265 340.233 20.4384C339.758 20.5862 339.303 20.7698 338.869 20.9892L341.098 35.362L342.017 35.1787C343.116 34.9596 344.199 34.5976 345.266 34.0926C346.359 33.5824 347.294 32.9445 348.071 32.1788C348.873 31.4081 349.464 30.507 349.842 29.4755C350.246 28.439 350.321 27.2822 350.066 26.0053Z" fill="black"/>
<path d="M385.39 0L391.583 53.0159L375.585 57.083L365.224 5.13738L385.39 0Z" fill="black"/>
<path d="M234.584 107.741H239.576V111.821C241.336 108.717 244.088 107.165 247.832 107.165C250.936 107.165 253.448 108.157 255.368 110.141C257.288 112.093 258.248 114.925 258.248 118.637C258.248 120.941 257.768 122.973 256.808 124.733C255.88 126.493 254.6 127.853 252.968 128.813C251.368 129.773 249.576 130.253 247.592 130.253C245.736 130.253 244.12 129.933 242.744 129.293C241.4 128.621 240.344 127.677 239.576 126.461L239.624 141.437H234.584V107.741ZM246.392 125.885C248.472 125.885 250.072 125.229 251.192 123.917C252.312 122.573 252.872 120.861 252.872 118.781C252.872 116.605 252.312 114.877 251.192 113.597C250.104 112.285 248.504 111.629 246.392 111.629C245.24 111.629 244.152 111.917 243.128 112.493C242.136 113.037 241.336 113.837 240.728 114.893C240.152 115.917 239.864 117.117 239.864 118.493V118.829C239.864 120.205 240.152 121.437 240.728 122.525C241.336 123.581 242.136 124.413 243.128 125.021C244.12 125.597 245.208 125.885 246.392 125.885Z" fill="black"/>
<path d="M273.097 130.253C270.825 130.253 268.809 129.741 267.049 128.717C265.289 127.693 263.929 126.301 262.969 124.541C262.009 122.781 261.529 120.829 261.529 118.685C261.529 116.573 261.993 114.637 262.921 112.877C263.881 111.117 265.241 109.725 267.001 108.701C268.761 107.677 270.793 107.165 273.097 107.165C275.401 107.165 277.417 107.677 279.145 108.701C280.905 109.725 282.249 111.117 283.177 112.877C284.137 114.637 284.617 116.573 284.617 118.685C284.617 120.829 284.137 122.781 283.177 124.541C282.217 126.301 280.857 127.693 279.097 128.717C277.369 129.741 275.369 130.253 273.097 130.253ZM273.241 126.029C275.097 126.029 276.553 125.341 277.609 123.965C278.697 122.589 279.241 120.861 279.241 118.781C279.241 116.701 278.665 114.957 277.513 113.549C276.361 112.109 274.841 111.389 272.953 111.389C271.129 111.389 269.657 112.093 268.537 113.501C267.449 114.909 266.905 116.669 266.905 118.781C266.905 120.829 267.497 122.557 268.681 123.965C269.865 125.341 271.385 126.029 273.241 126.029Z" fill="black"/>
<path d="M298.937 130.253C296.953 130.253 295.113 129.789 293.417 128.861C291.753 127.901 290.409 126.557 289.385 124.829C288.393 123.069 287.897 121.021 287.897 118.685C287.897 115.197 288.873 112.413 290.825 110.333C292.777 108.221 295.417 107.165 298.745 107.165C300.601 107.165 302.297 107.629 303.833 108.557C305.369 109.453 306.409 110.541 306.953 111.821L306.713 108.077V94.4927H311.801V129.773H306.857L306.761 125.885C306.217 127.037 305.225 128.061 303.785 128.957C302.345 129.821 300.729 130.253 298.937 130.253ZM299.801 125.885C301.625 125.885 303.161 125.261 304.409 124.013C305.657 122.733 306.281 121.069 306.281 119.021V118.685C306.281 117.309 305.993 116.077 305.417 114.989C304.841 113.901 304.057 113.053 303.065 112.445C302.073 111.837 300.985 111.533 299.801 111.533C297.753 111.533 296.169 112.205 295.049 113.549C293.929 114.861 293.369 116.573 293.369 118.685C293.369 120.829 293.913 122.573 295.001 123.917C296.121 125.229 297.721 125.885 299.801 125.885Z" fill="black"/>
<path d="M327.989 130.253C325.813 130.253 323.845 129.789 322.085 128.861C320.357 127.901 318.981 126.541 317.957 124.781C316.933 122.989 316.421 120.893 316.421 118.493C316.421 116.221 316.885 114.237 317.813 112.541C318.773 110.813 320.101 109.485 321.797 108.557C323.525 107.629 325.509 107.165 327.749 107.165C329.445 107.165 330.901 107.389 332.117 107.837C333.365 108.253 334.341 108.781 335.045 109.421L332.741 113.597C331.397 112.253 329.877 111.581 328.181 111.581C326.133 111.581 324.565 112.205 323.477 113.453C322.421 114.701 321.893 116.365 321.893 118.445C321.893 120.813 322.437 122.653 323.525 123.965C324.645 125.277 326.197 125.933 328.181 125.933C329.173 125.933 330.133 125.789 331.061 125.501C332.021 125.213 332.757 124.877 333.269 124.493L335.141 128.141C334.437 128.685 333.445 129.181 332.165 129.629C330.917 130.045 329.525 130.253 327.989 130.253Z" fill="black"/>
<path d="M348.861 130.253C346.877 130.253 345.037 129.789 343.341 128.861C341.677 127.901 340.333 126.557 339.309 124.829C338.317 123.069 337.821 121.021 337.821 118.685C337.821 116.381 338.253 114.365 339.117 112.637C340.013 110.909 341.277 109.565 342.909 108.605C344.541 107.645 346.461 107.165 348.669 107.165C349.949 107.165 351.149 107.389 352.269 107.837C353.389 108.285 354.333 108.845 355.101 109.517C355.869 110.157 356.381 110.797 356.637 111.437L356.733 107.741H361.677V129.773H356.781L356.685 125.885C356.141 127.037 355.149 128.061 353.709 128.957C352.269 129.821 350.653 130.253 348.861 130.253ZM349.725 125.933C351.549 125.933 353.085 125.309 354.333 124.061C355.581 122.781 356.205 121.117 356.205 119.069V118.733C356.205 117.357 355.917 116.125 355.341 115.037C354.765 113.949 353.981 113.101 352.989 112.493C351.997 111.885 350.909 111.581 349.725 111.581C347.677 111.581 346.093 112.253 344.973 113.597C343.853 114.909 343.293 116.621 343.293 118.733C343.293 120.877 343.837 122.621 344.925 123.965C346.045 125.277 347.645 125.933 349.725 125.933Z" fill="black"/>
<path d="M375.272 130.253C373.736 130.253 372.136 130.061 370.472 129.677C368.84 129.261 367.672 128.781 366.968 128.237L368.696 124.157C370.616 125.501 372.808 126.173 375.272 126.173C377.736 126.173 378.968 125.453 378.968 124.013C378.968 123.373 378.712 122.877 378.2 122.525C377.688 122.173 376.776 121.757 375.464 121.277L373.64 120.605C371.72 119.837 370.2 118.925 369.08 117.869C367.96 116.781 367.4 115.357 367.4 113.597C367.4 111.581 368.184 110.013 369.752 108.893C371.352 107.741 373.48 107.165 376.136 107.165C377.448 107.165 378.728 107.309 379.976 107.597C381.256 107.885 382.232 108.253 382.904 108.701L381.032 112.829C380.616 112.413 379.944 112.061 379.016 111.773C378.12 111.453 377.112 111.293 375.992 111.293C373.72 111.293 372.584 111.981 372.584 113.357C372.584 114.125 372.888 114.717 373.496 115.133C374.104 115.517 375.096 115.949 376.472 116.429C376.6 116.461 377.096 116.637 377.96 116.957C380.008 117.757 381.528 118.669 382.52 119.693C383.512 120.717 384.008 122.029 384.008 123.629C384.008 125.805 383.176 127.453 381.512 128.573C379.88 129.693 377.8 130.253 375.272 130.253Z" fill="black"/>
<path d="M390.351 111.965H386.463V107.741H390.351V98.7647L395.583 97.6127V107.741H400.671V111.965H395.583V129.773H390.351V111.965Z" fill="black"/>
</svg>
