<svg width="401" height="142" viewBox="0 0 401 142" fill="none" xmlns="http://www.w3.org/2000/svg">
<path d="M12.032 10.4413H0V4.16933H31.296V10.4413H19.136V51.2093H12.032V10.4413Z" fill="#FAFCFE"/>
<path d="M34.2265 4.16933H40.9465V21.8333L40.6905 27.2733C41.5012 25.4813 42.8025 24.0093 44.5945 22.8573C46.3865 21.6627 48.4772 21.0653 50.8665 21.0653C53.8958 21.0653 56.2212 21.7053 57.8425 22.9853C59.4638 24.2227 60.5518 25.972 61.1065 28.2333C61.6612 30.4947 61.9385 33.4387 61.9385 37.0653V51.2093H55.0905V37.0013C55.0905 34.5267 54.9412 32.5853 54.6425 31.1773C54.3865 29.7693 53.8318 28.7027 52.9785 27.9773C52.1678 27.252 50.9732 26.8893 49.3945 26.8893C48.1145 26.8893 46.8132 27.2733 45.4905 28.0413C44.2105 28.8093 43.1438 29.94 42.2905 31.4333C41.4372 32.884 41.0105 34.612 41.0105 36.6173V51.2093H34.2265V4.16933Z" fill="#FAFCFE"/>
<path d="M83.327 51.8493C79.8283 51.8493 76.9057 51.1667 74.559 49.8013C72.2123 48.3933 70.4843 46.5373 69.375 44.2333C68.2657 41.8867 67.711 39.3267 67.711 36.5533C67.711 33.4387 68.351 30.708 69.631 28.3613C70.9537 26.0147 72.767 24.2227 75.071 22.9853C77.375 21.7053 79.9777 21.0653 82.879 21.0653C87.4017 21.0653 90.751 22.324 92.927 24.8413C95.1457 27.316 96.255 30.8147 96.255 35.3373C96.255 36.4893 96.191 37.684 96.063 38.9213H74.943C75.4123 41.524 76.3297 43.4013 77.695 44.5533C79.103 45.7053 81.0443 46.2813 83.519 46.2813C85.567 46.2813 87.2523 46.1107 88.575 45.7693C89.8977 45.428 91.1137 44.9587 92.223 44.3613L94.335 49.2893C93.2683 49.972 91.8177 50.5693 89.983 51.0813C88.1483 51.5933 85.9297 51.8493 83.327 51.8493ZM89.535 34.1213C89.5777 31.476 89.0017 29.62 87.807 28.5533C86.6123 27.444 84.9057 26.8893 82.687 26.8893C78.207 26.8893 75.6257 29.3 74.943 34.1213H89.535Z" fill="#FAFCFE"/>
<path d="M55.6662 114.158C54.7664 115.904 53.5475 117.514 52.0095 118.99C50.4714 120.465 48.7675 121.774 46.8976 122.917C45.0278 124.06 43.0687 125.021 41.0203 125.802C38.977 126.608 36.9976 127.202 35.0822 127.584C31.3791 128.322 27.8373 128.338 24.4567 127.632C21.0761 126.925 18.0176 125.636 15.2811 123.766C12.5651 121.864 10.2528 119.458 8.34426 116.546C6.43572 113.633 5.11725 110.351 4.38885 106.699C3.83364 103.916 3.6104 101.132 3.71912 98.3488C3.82275 95.5399 4.22765 92.8435 4.93381 90.2596C5.66041 87.6451 6.68315 85.184 8.00203 82.8763C9.31581 80.543 10.9155 78.4448 12.801 76.5816C14.6866 74.7185 16.8401 73.1339 19.2616 71.8277C21.6831 70.5216 24.3623 69.5756 27.2992 68.9898C28.3974 68.7708 29.5824 68.5876 30.8541 68.4401C32.1208 68.2671 33.39 68.1733 34.6617 68.1587C35.9538 68.1134 37.2255 68.1651 38.4767 68.3139C39.7279 68.4627 40.8947 68.7212 41.9773 69.0895L43.8233 83.9371C42.2862 83.686 40.7336 83.6239 39.1656 83.7508C37.6181 83.847 36.1165 84.0403 34.6608 84.3306C32.6177 84.7381 30.766 85.4394 29.1056 86.4344C27.4657 87.3988 26.0989 88.6008 25.0052 90.0404C23.937 91.475 23.188 93.1115 22.758 94.9498C22.328 96.7882 22.3244 98.7672 22.7472 100.887C23.012 102.215 23.448 103.469 24.0552 104.649C24.6572 105.804 25.4126 106.795 26.3212 107.623C27.2503 108.42 28.3097 109.005 29.4995 109.379C30.7148 109.747 32.0376 109.789 33.4677 109.503C34.4382 109.31 35.4087 108.983 36.3793 108.524C37.3755 108.06 38.1827 107.448 38.8011 106.687L38.3584 103.668L29.1339 105.349L27.3015 93.7648C31.0812 92.8782 34.8661 92.017 38.6561 91.1815C42.441 90.3204 46.2463 89.4286 50.0721 88.5062L55.6662 114.158Z" fill="#FAFCFE"/>
<path d="M83.8655 59.2213C84.1911 61.6525 84.5244 64.0556 84.8653 66.4306C85.2062 68.8056 85.5139 71.2139 85.7884 73.6552L69.7139 77.7376L70.2935 82.6408L81.7093 80.3639L83.2351 92.4075L71.8191 95.0827L72.5516 100.752L88.7941 97.5125C89.2012 100.352 89.593 103.182 89.9694 106.001C90.3663 108.79 90.7785 111.589 91.206 114.398L58.3373 121.75L48.5456 66.2659L83.8655 59.2213Z" fill="#FAFCFE"/>
<path d="M135.23 78.2929C135.694 80.6169 135.874 82.9178 135.77 85.1955C135.662 87.4478 135.286 89.6207 134.641 91.7143C134.022 93.8028 133.142 95.7839 132.002 97.6577C130.883 99.5008 129.529 101.165 127.94 102.65C126.376 104.131 124.598 105.401 122.606 106.463C120.608 107.498 118.422 108.253 116.047 108.727C113.748 109.185 111.493 109.33 109.282 109.16C107.096 108.985 104.992 108.555 102.97 107.869C100.943 107.158 99.0412 106.21 97.2645 105.024C95.5083 103.808 93.9258 102.397 92.5171 100.793C91.1288 99.158 89.9321 97.3519 88.927 95.3749C87.9475 93.3928 87.2311 91.2653 86.7777 88.9924C86.3346 86.7705 86.1698 84.5462 86.2833 82.3195C86.3918 80.0673 86.7555 77.897 87.3746 75.8085C88.0192 73.7149 88.8987 71.7337 90.0131 69.8651C91.1274 67.9964 92.4511 66.3118 93.984 64.8111C95.5425 63.3053 97.2924 62.0268 99.2337 60.9758C101.175 59.9247 103.295 59.17 105.593 58.7116C109.296 57.973 112.782 57.8752 116.05 58.4183C119.344 58.9563 122.278 60.084 124.851 61.8014C127.444 63.4881 129.632 65.7339 131.413 68.5387C133.214 71.3129 134.487 74.5643 135.23 78.2929ZM118.42 82.6813C118.201 81.5831 117.824 80.5564 117.288 79.6011C116.773 78.6151 116.13 77.7874 115.359 77.1179C114.583 76.423 113.687 75.9245 112.671 75.6227C111.675 75.2902 110.59 75.2411 109.415 75.4754C108.215 75.7148 107.185 76.1458 106.327 76.7684C105.469 77.391 104.771 78.1542 104.234 79.0579C103.718 79.9309 103.383 80.9139 103.229 82.0068C103.07 83.0741 103.103 84.1696 103.327 85.2933C103.541 86.3659 103.908 87.408 104.428 88.4195C104.949 89.431 105.602 90.3098 106.388 91.0558C107.174 91.8019 108.068 92.3539 109.069 92.712C110.095 93.0649 111.208 93.1217 112.409 92.8823C113.609 92.6429 114.636 92.1991 115.489 91.5509C116.363 90.8721 117.053 90.0707 117.559 89.1465C118.06 88.1969 118.385 87.1628 118.533 86.0444C118.682 84.926 118.644 83.805 118.42 82.6813Z" fill="#FAFCFE"/>
<path d="M187.208 96.0472L168.238 100.787L164.555 83.1191L155.744 84.8764L158.554 101.762L141.392 105.185L132.105 51.0339L150.508 48.2397L154.845 75.9741L163.349 74.2779L157.527 44.6889L175.087 41.6645L187.208 96.0472Z" fill="#FAFCFE"/>
<path d="M236.928 82.7051L218.416 88.9465L214.391 80.7473L205.657 82.4894L205.468 91.529L185.549 93.5103L190.618 39.4431L211.704 34.1224L236.928 82.7051ZM210.674 69.3001L205.104 56.5496L204.928 70.4462L210.674 69.3001Z" fill="#FAFCFE"/>
<path d="M278.691 63.6209C279.114 65.7406 279.082 67.6456 278.596 69.3358C278.135 71.0209 277.361 72.5297 276.272 73.8621C275.184 75.1945 273.853 76.3761 272.279 77.4069C270.726 78.4071 269.068 79.2821 267.306 80.0319C265.543 80.7818 263.743 81.4064 261.904 81.906C260.091 82.4004 258.38 82.8081 256.771 83.129C255.187 83.4448 253.527 83.7095 251.791 83.9231C250.085 84.1571 248.361 84.3017 246.619 84.357C244.878 84.4123 243.144 84.373 241.418 84.2393C239.687 84.0801 238.022 83.7881 236.423 83.3634L226.506 34.038C227.819 33.1653 229.234 32.3387 230.751 31.5581C232.263 30.752 233.819 30.0301 235.418 29.3926C237.037 28.7244 238.662 28.1481 240.291 27.6638C241.915 27.154 243.506 26.7437 245.064 26.433C246.878 26.0713 248.727 25.822 250.611 25.6851C252.521 25.5431 254.385 25.5697 256.203 25.7647C258.022 25.9597 259.758 26.3437 261.412 26.9166C263.062 27.4639 264.56 28.2538 265.908 29.2861C267.281 30.3134 268.44 31.5959 269.384 33.1337C270.353 34.6664 271.055 36.5181 271.488 38.6889C271.773 40.119 271.836 41.5006 271.677 42.8335C271.518 44.1664 271.155 45.4072 270.587 46.556C270.02 47.7048 269.258 48.7463 268.303 49.6804C267.342 50.589 266.205 51.3468 264.892 51.9539C266.639 52.0569 268.273 52.3949 269.795 52.9677C271.342 53.5354 272.708 54.3252 273.892 55.337C275.102 56.3438 276.112 57.5496 276.924 58.9545C277.76 60.3544 278.35 61.9098 278.691 63.6209ZM254.875 45.6667C254.728 44.9261 254.45 44.331 254.041 43.8813C253.628 43.4061 253.158 43.0484 252.632 42.8081C252.132 42.5627 251.598 42.4168 251.031 42.3706C250.49 42.3192 250.015 42.3343 249.606 42.4158C249.096 42.5176 248.613 42.6936 248.158 42.9436C247.704 43.1936 247.267 43.4666 246.848 43.7626L248.314 52.3128C248.902 52.1957 249.619 51.9994 250.467 51.7241C251.315 51.4487 252.102 51.0661 252.827 50.5762C253.573 50.0557 254.161 49.4074 254.59 48.6313C255.015 47.8297 255.11 46.8415 254.875 45.6667ZM251.926 59.2401C251.186 59.3878 250.486 59.607 249.827 59.8978L251.416 68.6626C251.814 68.6628 252.2 68.6656 252.573 68.6709C252.966 68.6455 253.341 68.5972 253.699 68.5259C254.235 68.4189 254.812 68.2507 255.43 68.0212C256.043 67.7662 256.598 67.4166 257.093 66.9725C257.584 66.5029 257.949 65.9388 258.19 65.2801C258.456 64.6163 258.492 63.7992 258.298 62.8287C258.105 61.8582 257.755 61.1047 257.25 60.5682C256.77 60.0266 256.229 59.6433 255.626 59.4182C255.019 59.1677 254.386 59.055 253.727 59.0802C253.063 59.0798 252.463 59.1331 251.926 59.2401Z" fill="#FAFCFE"/>
<path d="M329.56 64.2297L311.048 70.4711L307.023 62.272L298.288 64.014L298.1 73.0536L278.181 75.0349L283.25 20.9677L304.335 15.647L329.56 64.2297ZM303.306 50.8248L297.735 38.0743L297.559 51.9709L303.306 50.8248Z" fill="#FAFCFE"/>
<path d="M366.984 21.7932C367.381 23.7852 367.564 25.6341 367.532 27.3399C367.521 29.015 367.28 30.6032 366.81 32.1045C366.339 33.6057 365.631 35.0481 364.685 36.4317C363.74 37.8152 362.541 39.1961 361.09 40.5743L373.447 54.9984L356.881 61.8078L347.727 46.6652L343.007 47.7659L345.496 63.8395L329.023 67.1249C327.99 61.2766 326.948 55.4564 325.899 49.6643C324.876 43.8671 323.86 38.0418 322.852 32.1885C322.317 29.2413 321.788 26.3197 321.263 23.4237C320.739 20.5276 320.26 17.5958 319.828 14.6283C321.483 13.6078 323.136 12.7072 324.786 11.9267C326.436 11.1462 328.106 10.4678 329.797 9.89159C331.508 9.28474 333.25 8.76472 335.022 8.33155C336.815 7.86775 338.656 7.44738 340.546 7.07045C343.458 6.48977 346.349 6.33808 349.219 6.61539C352.109 6.86206 354.762 7.58103 357.177 8.77228C359.592 9.96354 361.665 11.6347 363.395 13.7857C365.151 15.9317 366.347 18.6008 366.984 21.7932ZM350.066 26.442C349.852 25.3693 349.503 24.4167 349.018 23.5839C348.559 22.7461 347.972 22.0665 347.257 21.5452C346.563 20.9933 345.746 20.6251 344.806 20.4408C343.887 20.2258 342.853 20.2329 341.704 20.4621C341.193 20.564 340.703 20.7016 340.233 20.875C339.758 21.0229 339.303 21.2065 338.869 21.4259L341.098 35.7987L342.017 35.6153C343.116 35.3963 344.199 35.0343 345.266 34.5292C346.359 34.0191 347.294 33.3812 348.071 32.6155C348.873 31.8447 349.464 30.9436 349.842 29.9122C350.246 28.8756 350.321 27.7189 350.066 26.442Z" fill="#FAFCFE"/>
<path d="M385.39 0.436646L391.583 53.4526L375.585 57.5196L365.224 5.57402L385.39 0.436646Z" fill="#FAFCFE"/>
<path d="M234.584 108.177H239.576V112.257C241.336 109.153 244.088 107.601 247.832 107.601C250.936 107.601 253.448 108.593 255.368 110.577C257.288 112.529 258.248 115.361 258.248 119.073C258.248 121.377 257.768 123.409 256.808 125.169C255.88 126.929 254.6 128.289 252.968 129.249C251.368 130.209 249.576 130.689 247.592 130.689C245.736 130.689 244.12 130.369 242.744 129.729C241.4 129.057 240.344 128.113 239.576 126.897L239.624 141.873H234.584V108.177ZM246.392 126.321C248.472 126.321 250.072 125.665 251.192 124.353C252.312 123.009 252.872 121.297 252.872 119.217C252.872 117.041 252.312 115.313 251.192 114.033C250.104 112.721 248.504 112.065 246.392 112.065C245.24 112.065 244.152 112.353 243.128 112.929C242.136 113.473 241.336 114.273 240.728 115.329C240.152 116.353 239.864 117.553 239.864 118.929V119.265C239.864 120.641 240.152 121.873 240.728 122.961C241.336 124.017 242.136 124.849 243.128 125.457C244.12 126.033 245.208 126.321 246.392 126.321Z" fill="#FAFCFE"/>
<path d="M273.097 130.689C270.825 130.689 268.809 130.177 267.049 129.153C265.289 128.129 263.929 126.737 262.969 124.977C262.009 123.217 261.529 121.265 261.529 119.121C261.529 117.009 261.993 115.073 262.921 113.313C263.881 111.553 265.241 110.161 267.001 109.137C268.761 108.113 270.793 107.601 273.097 107.601C275.401 107.601 277.417 108.113 279.145 109.137C280.905 110.161 282.249 111.553 283.177 113.313C284.137 115.073 284.617 117.009 284.617 119.121C284.617 121.265 284.137 123.217 283.177 124.977C282.217 126.737 280.857 128.129 279.097 129.153C277.369 130.177 275.369 130.689 273.097 130.689ZM273.241 126.465C275.097 126.465 276.553 125.777 277.609 124.401C278.697 123.025 279.241 121.297 279.241 119.217C279.241 117.137 278.665 115.393 277.513 113.985C276.361 112.545 274.841 111.825 272.953 111.825C271.129 111.825 269.657 112.529 268.537 113.937C267.449 115.345 266.905 117.105 266.905 119.217C266.905 121.265 267.497 122.993 268.681 124.401C269.865 125.777 271.385 126.465 273.241 126.465Z" fill="#FAFCFE"/>
<path d="M298.937 130.689C296.953 130.689 295.113 130.225 293.417 129.297C291.753 128.337 290.409 126.993 289.385 125.265C288.393 123.505 287.897 121.457 287.897 119.121C287.897 115.633 288.873 112.849 290.825 110.769C292.777 108.657 295.417 107.601 298.745 107.601C300.601 107.601 302.297 108.065 303.833 108.993C305.369 109.889 306.409 110.977 306.953 112.257L306.713 108.513V94.9293H311.801V130.209H306.857L306.761 126.321C306.217 127.473 305.225 128.497 303.785 129.393C302.345 130.257 300.729 130.689 298.937 130.689ZM299.801 126.321C301.625 126.321 303.161 125.697 304.409 124.449C305.657 123.169 306.281 121.505 306.281 119.457V119.121C306.281 117.745 305.993 116.513 305.417 115.425C304.841 114.337 304.057 113.489 303.065 112.881C302.073 112.273 300.985 111.969 299.801 111.969C297.753 111.969 296.169 112.641 295.049 113.985C293.929 115.297 293.369 117.009 293.369 119.121C293.369 121.265 293.913 123.009 295.001 124.353C296.121 125.665 297.721 126.321 299.801 126.321Z" fill="#FAFCFE"/>
<path d="M327.989 130.689C325.813 130.689 323.845 130.225 322.085 129.297C320.357 128.337 318.981 126.977 317.957 125.217C316.933 123.425 316.421 121.329 316.421 118.929C316.421 116.657 316.885 114.673 317.813 112.977C318.773 111.249 320.101 109.921 321.797 108.993C323.525 108.065 325.509 107.601 327.749 107.601C329.445 107.601 330.901 107.825 332.117 108.273C333.365 108.689 334.341 109.217 335.045 109.857L332.741 114.033C331.397 112.689 329.877 112.017 328.181 112.017C326.133 112.017 324.565 112.641 323.477 113.889C322.421 115.137 321.893 116.801 321.893 118.881C321.893 121.249 322.437 123.089 323.525 124.401C324.645 125.713 326.197 126.369 328.181 126.369C329.173 126.369 330.133 126.225 331.061 125.937C332.021 125.649 332.757 125.313 333.269 124.929L335.141 128.577C334.437 129.121 333.445 129.617 332.165 130.065C330.917 130.481 329.525 130.689 327.989 130.689Z" fill="#FAFCFE"/>
<path d="M348.861 130.689C346.877 130.689 345.037 130.225 343.341 129.297C341.677 128.337 340.333 126.993 339.309 125.265C338.317 123.505 337.821 121.457 337.821 119.121C337.821 116.817 338.253 114.801 339.117 113.073C340.013 111.345 341.277 110.001 342.909 109.041C344.541 108.081 346.461 107.601 348.669 107.601C349.949 107.601 351.149 107.825 352.269 108.273C353.389 108.721 354.333 109.281 355.101 109.953C355.869 110.593 356.381 111.233 356.637 111.873L356.733 108.177H361.677V130.209H356.781L356.685 126.321C356.141 127.473 355.149 128.497 353.709 129.393C352.269 130.257 350.653 130.689 348.861 130.689ZM349.725 126.369C351.549 126.369 353.085 125.745 354.333 124.497C355.581 123.217 356.205 121.553 356.205 119.505V119.169C356.205 117.793 355.917 116.561 355.341 115.473C354.765 114.385 353.981 113.537 352.989 112.929C351.997 112.321 350.909 112.017 349.725 112.017C347.677 112.017 346.093 112.689 344.973 114.033C343.853 115.345 343.293 117.057 343.293 119.169C343.293 121.313 343.837 123.057 344.925 124.401C346.045 125.713 347.645 126.369 349.725 126.369Z" fill="#FAFCFE"/>
<path d="M375.272 130.689C373.736 130.689 372.136 130.497 370.472 130.113C368.84 129.697 367.672 129.217 366.968 128.673L368.696 124.593C370.616 125.937 372.808 126.609 375.272 126.609C377.736 126.609 378.968 125.889 378.968 124.449C378.968 123.809 378.712 123.313 378.2 122.961C377.688 122.609 376.776 122.193 375.464 121.713L373.64 121.041C371.72 120.273 370.2 119.361 369.08 118.305C367.96 117.217 367.4 115.793 367.4 114.033C367.4 112.017 368.184 110.449 369.752 109.329C371.352 108.177 373.48 107.601 376.136 107.601C377.448 107.601 378.728 107.745 379.976 108.033C381.256 108.321 382.232 108.689 382.904 109.137L381.032 113.265C380.616 112.849 379.944 112.497 379.016 112.209C378.12 111.889 377.112 111.729 375.992 111.729C373.72 111.729 372.584 112.417 372.584 113.793C372.584 114.561 372.888 115.153 373.496 115.569C374.104 115.953 375.096 116.385 376.472 116.865C376.6 116.897 377.096 117.073 377.96 117.393C380.008 118.193 381.528 119.105 382.52 120.129C383.512 121.153 384.008 122.465 384.008 124.065C384.008 126.241 383.176 127.889 381.512 129.009C379.88 130.129 377.8 130.689 375.272 130.689Z" fill="#FAFCFE"/>
<path d="M390.351 112.401H386.463V108.177H390.351V99.2013L395.583 98.0493V108.177H400.671V112.401H395.583V130.209H390.351V112.401Z" fill="#FAFCFE"/>
</svg>
